<?xml version="1.0" encoding="UTF-8" standalone="no"?>
<!-- Created with Inkscape (http://www.inkscape.org/) -->

<svg
   width="24.457668mm"
   height="24.957031mm"
   viewBox="0 0 24.457668 24.957031"
   version="1.1"
   id="svg1"
   inkscape:version="1.3.2 (091e20e, 2023-11-25, custom)"
   sodipodi:docname="man.svg"
   xmlns:inkscape="http://www.inkscape.org/namespaces/inkscape"
   xmlns:sodipodi="http://sodipodi.sourceforge.net/DTD/sodipodi-0.dtd"
   xmlns:xlink="http://www.w3.org/1999/xlink"
   xmlns="http://www.w3.org/2000/svg"
   xmlns:svg="http://www.w3.org/2000/svg">
  <sodipodi:namedview
     id="namedview1"
     pagecolor="#ffffff"
     bordercolor="#000000"
     borderopacity="0.25"
     inkscape:showpageshadow="2"
     inkscape:pageopacity="0.0"
     inkscape:pagecheckerboard="0"
     inkscape:deskcolor="#d1d1d1"
     inkscape:document-units="mm"
     inkscape:zoom="1.0841681"
     inkscape:cx="250.42243"
     inkscape:cy="418.29308"
     inkscape:window-width="2560"
     inkscape:window-height="1494"
     inkscape:window-x="-11"
     inkscape:window-y="-11"
     inkscape:window-maximized="1"
     inkscape:current-layer="layer1" />
  <defs
     id="defs1">
    <radialGradient
       id="Gradient_1"
       gradientUnits="userSpaceOnUse"
       cx="0"
       cy="0"
       r="13.5875"
       fx="0"
       fy="0"
       spreadMethod="pad">
      <stop
         offset="0%"
         stop-color="#000000"
         stop-opacity="0.30196078431372547"
         id="stop1" />
      <stop
         offset="100%"
         stop-color="#000000"
         stop-opacity="0"
         id="stop2" />
    </radialGradient>
    <radialGradient
       id="radialGradient4"
       gradientUnits="userSpaceOnUse"
       cx="0"
       cy="0"
       r="13.5875"
       fx="0"
       fy="0"
       spreadMethod="pad">
      <stop
         offset="0%"
         stop-color="#000000"
         stop-opacity="0.30196078431372547"
         id="stop3" />
      <stop
         offset="100%"
         stop-color="#000000"
         stop-opacity="0"
         id="stop4" />
    </radialGradient>
    <radialGradient
       inkscape:collect="always"
       xlink:href="#Gradient_1"
       id="radialGradient22"
       gradientUnits="userSpaceOnUse"
       cx="0"
       cy="0"
       fx="0"
       fy="0"
       r="13.5875"
       spreadMethod="pad" />
  </defs>
  <g
     inkscape:label="Capa 1"
     inkscape:groupmode="layer"
     id="layer1"
     transform="translate(-38.716681,-37.735988)">
    <g
       transform="matrix(0.26458333,0,0,0.26458333,53.181244,56.607602)"
       id="g1056">
      <g
         id="g1055">
        <g
           id="use1054">
          <path
             fill="#4c4eaa"
             stroke="none"
             d="M 5.3,14 5.45,9 H -6.45 L -6.6,14 H 5.25 Z"
             id="path47" />
          <path
             fill="#ffffff"
             stroke="none"
             d="M 11,20 5.25,14 H -6.6 l -0.25,6 z"
             id="path48" />
          <path
             fill="#eea160"
             stroke="none"
             d="M 10.9,23 11,20 H -6.85 L -7,23 Z"
             id="path49" />
          <path
             fill="#676ac6"
             stroke="none"
             d="M 5.9,-0.2 Q 5.9,-2.6 4,-4.3 2.15,-6 -0.55,-6 -3.2,-6 -5.1,-4.3 -7,-2.6 -7,-0.2 L -6.45,9 h 11.9 z"
             id="path50" />
        </g>
      </g>
    </g>
    <g
       transform="matrix(-0.26458333,0,0,0.26458333,48.947911,56.607602)"
       id="g1058">
      <g
         id="g1057">
        <g
           id="use1056">
          <path
             fill="#4c4eaa"
             stroke="none"
             d="M 5.3,14 5.45,9 H -6.45 L -6.6,14 H 5.25 Z"
             id="path51" />
          <path
             fill="#ffffff"
             stroke="none"
             d="M 11,20 5.25,14 H -6.6 l -0.25,6 z"
             id="path52" />
          <path
             fill="#eea160"
             stroke="none"
             d="M 10.9,23 11,20 H -6.85 L -7,23 Z"
             id="path53" />
          <path
             fill="#676ac6"
             stroke="none"
             d="M 5.9,-0.2 Q 5.9,-2.6 4,-4.3 2.15,-6 -0.55,-6 -3.2,-6 -5.1,-4.3 -7,-2.6 -7,-0.2 L -6.45,9 h 11.9 z"
             id="path54" />
        </g>
      </g>
    </g>
    <g
       transform="matrix(-0.06847935,0.25556418,0.25556418,0.06847935,55.099473,51.540831)"
       id="g1061">
      <g
         id="g1059">
        <g
           id="use1058">
          <path
             fill="#bf7958"
             stroke="none"
             d="M 13.15,10.6 Q 11.9,7.15 9.95,3.9 4.35,5.25 -0.3,10.1 q 0.85,1.35 1.5,2.75 1.55,3.2 1.95,6.9 0.25,2.4 2.15,3.95 1.95,1.5 4.4,1.3 2.4,-0.3 3.95,-2.25 1.55,-1.85 1.3,-4.35 -0.35,-2.9 -1.1,-5.55 -0.3,-1.15 -0.7,-2.25 z"
             id="path43" />
          <path
             fill="#e7f3fc"
             stroke="none"
             d="m -0.2,-5 q -2.45,0.05 -4.2,1.8 -1.7,1.8 -1.6,4.2 0,2.45 1.7,4.15 2.4,2.3 4,4.95 Q 4.35,5.25 9.95,3.9 7.5,0.05 4,-3.35 2.25,-4.95 -0.2,-5 Z"
             id="path44" />
        </g>
      </g>
      <g
         id="g1060">
        <g
           id="use1059">
          <path
             fill="#bfd4e5"
             stroke="none"
             d="m 12.4,4.8 -2.05,-3.6 -12.9,7.5 2,3.55 z"
             id="path55" />
        </g>
      </g>
    </g>
    <g
       transform="matrix(0,0.26457525,-0.26457525,0,47.294265,51.540831)"
       id="g1064">
      <g
         id="g1062">
        <g
           id="use1061">
          <path
             fill="#bf7958"
             stroke="none"
             d="M 13.15,10.6 Q 11.9,7.15 9.95,3.9 4.35,5.25 -0.3,10.1 q 0.85,1.35 1.5,2.75 1.55,3.2 1.95,6.9 0.25,2.4 2.15,3.95 1.95,1.5 4.4,1.3 2.4,-0.3 3.95,-2.25 1.55,-1.85 1.3,-4.35 -0.35,-2.9 -1.1,-5.55 -0.3,-1.15 -0.7,-2.25 z"
             id="path45" />
          <path
             fill="#e7f3fc"
             stroke="none"
             d="m -0.2,-5 q -2.45,0.05 -4.2,1.8 -1.7,1.8 -1.6,4.2 0,2.45 1.7,4.15 2.4,2.3 4,4.95 Q 4.35,5.25 9.95,3.9 7.5,0.05 4,-3.35 2.25,-4.95 -0.2,-5 Z"
             id="path46" />
        </g>
      </g>
      <g
         id="g1063">
        <g
           id="use1062">
          <path
             fill="#bfd4e5"
             stroke="none"
             d="m 12.4,4.8 -2.05,-3.6 -12.9,7.5 2,3.55 z"
             id="path56" />
        </g>
      </g>
    </g>
    <g
       transform="matrix(0.26458333,0,0,0.26458333,51.064578,55.840311)"
       id="g1070">
      <g
         id="g1065">
        <g
           id="use1064">
          <path
             fill="#bfd4e5"
             stroke="none"
             d="M 14.6,2.8 V -2.15 H -15.45 V 2.8 Z"
             id="path36" />
          <path
             fill="#676ac6"
             stroke="none"
             d="m 13.1,8 q 1.4,-1.9 1.5,-5.2 h -30.05 q 0.1,3.3 1.5,5.2 z"
             id="path37" />
          <path
             fill="#e7f3fc"
             stroke="none"
             d="m 17.8,-15.8 q 1.05,-5.4 -2.6,-5.2 h -31.3 q -3.65,-0.2 -2.6,5.2 l 3.25,13.65 H 14.6 Z"
             id="path38" />
        </g>
      </g>
      <g
         id="g1066">
        <g
           id="use1065">
          <path
             fill="#a8603f"
             stroke="none"
             d="M 7.6,-28.45 Q 4.45,-31 0.05,-31 q -4.4,0 -7.55,2.55 -3.1,2.7 -3.1,6.45 0,0.25 0.05,0.5 0.15,3.4 3.05,5.8 3.15,2.7 7.55,2.7 4.4,0 7.55,-2.7 2.9,-2.4 3.05,-5.8 0.05,-0.25 0.05,-0.5 0,-3.75 -3.1,-6.45 z"
             id="path33" />
        </g>
      </g>
      <g
         id="g1067">
        <g
           id="use1066">
          <path
             fill="#d78b49"
             stroke="none"
             d="m -3.15,-1.95 -14.1,1.25 q 0.4,2.45 0.85,5.2 L -3.95,3 q 0.5,-2.3 0.8,-4.95 z"
             id="path25" />
          <path
             fill="#eea160"
             stroke="none"
             d="m -3.15,-1.95 q 0.35,-3.5 0.25,-7.55 -6.75,-4.25 -10.7,-12.9 l -4.55,-0.85 q -2.05,3.7 0.9,22.55 z"
             id="path26" />
        </g>
      </g>
      <g
         id="g1068">
        <g
           id="use1067">
          <path
             fill="#d78b49"
             stroke="none"
             d="M 16.85,-0.7 2.75,-1.95 Q 3.05,0.7 3.55,3 L 16,4.5 q 0.45,-2.75 0.85,-5.2 z"
             id="path23" />
          <path
             fill="#eea160"
             stroke="none"
             d="m 2.5,-9.5 q -0.1,4.05 0.25,7.55 l 14.1,1.25 q 2.95,-18.85 0.9,-22.55 L 13.2,-22.4 Q 9.25,-13.75 2.5,-9.5 Z"
             id="path24" />
        </g>
      </g>
      <g
         id="g1069">
        <g
           id="use1068">
          <path
             fill="#bfd4e5"
             stroke="none"
             d="m -13.05,-22 -2.05,3.6 13.1,7.6 2.05,-3.65 -13.1,-7.55 m 26.2,0 -13.1,7.55 2.05,3.65 13.1,-7.6 z"
             id="path34" />
          <path
             fill="#e7f3fc"
             stroke="none"
             d="M 2.1,-10.8 0.05,-14.45 -2,-10.8 Z"
             id="path35" />
        </g>
      </g>
    </g>
    <g
       transform="matrix(-0.10133829,0.2444053,0.2444053,0.10133829,59.160827,54.967186)"
       id="g1072">
      <g
         id="g1071">
        <g
           id="use1070">
          <path
             fill="#a8603f"
             stroke="none"
             d="M -9.2,7.6 -9.25,6.65 q 0.5,-6.2 3.8,-9.6 -8.7,6.45 -3.8,10.6 z"
             id="path39" />
          <path
             fill="#bf7958"
             stroke="none"
             d="M 7,-1.65 Q 6.95,-3 5.5,-3 l -10.95,0.05 q -3.3,3.4 -3.8,9.6 L -9.2,7.6 -9.25,7.65 q -0.05,1.65 0,3.5 v 0.4 q 0,1.4 2.15,1.8 3.15,0.7 6.15,0.65 Q 7.55,13.95 7,-0.75 Z"
             id="path40" />
        </g>
      </g>
    </g>
    <g
       transform="matrix(0.39882902,0,0,0.26458333,51.170411,50.561873)"
       id="g1074">
      <g
         id="g1073">
        <g
           id="use1072">
          <path
             fill="url(#Gradient_1)"
             stroke="none"
             d="m 9.45,-9.55 q -3.9,-3.9 -9.45,-3.9 -5.55,0 -9.55,3.9 -3.9,4 -3.9,9.55 0,5.55 3.9,9.45 4,4 9.55,4 5.55,0 9.45,-4 4,-3.9 4,-9.45 0,-5.55 -4,-9.55 z"
             id="path22"
             style="fill:url(#radialGradient22)" />
        </g>
      </g>
    </g>
    <g
       transform="matrix(0.10133829,0.2444053,-0.2444053,0.10133829,42.730203,53.882394)"
       id="g1086">
      <g
         id="g1085">
        <g
           id="use1084">
          <path
             fill="#a8603f"
             stroke="none"
             d="M -9.2,7.6 -9.25,6.65 q 0.5,-6.2 3.8,-9.6 -8.7,6.45 -3.8,10.6 z"
             id="path41" />
          <path
             fill="#bf7958"
             stroke="none"
             d="M 7,-1.65 Q 6.95,-3 5.5,-3 l -10.95,0.05 q -3.3,3.4 -3.8,9.6 L -9.2,7.6 -9.25,7.65 q -0.05,1.65 0,3.5 v 0.4 q 0,1.4 2.15,1.8 3.15,0.7 6.15,0.65 Q 7.55,13.95 7,-0.75 Z"
             id="path42" />
        </g>
      </g>
    </g>
    <g
       id="g1075"
       transform="matrix(0.26278273,0.03081207,-0.03081207,0.26278273,51.554063,48.471663)">
      <g
         id="use1074">
        <path
           fill="#454a51"
           stroke="none"
           d="m 12.65,-35.05 -2.9,-4.55 q -14.6,-1.15 -27.35,0.9 -7.15,1 -6.5,6.8 l 0.2,1.7 q 0.95,-3.55 6.35,-4.3 12.75,-2 27.35,-0.85 l 2.85,0.3 m 10.5,4.4 0.15,-1.25 q 0.7,-5.65 -5.45,-6.8 l -4.55,3.75 4.6,0.45 q 4.3,0.8 5.25,3.85 z"
           id="path2" />
        <path
           fill="#3c3e41"
           stroke="none"
           d="m 17.9,-34.5 -4.6,-0.45 -0.4,0.3 -0.25,-0.4 -2.85,-0.3 q -14.6,-1.15 -27.35,0.85 -5.4,0.75 -6.35,4.3 l 2.25,19.4 q 0.55,4.35 5.7,4.35 h 31.1 q 5.2,0 5.7,-4.35 l 2.3,-19.85 Q 22.2,-33.7 17.9,-34.5 Z"
           id="path3" />
      </g>
    </g>
    <g
       id="g1076"
       transform="matrix(0.26278273,0.03081207,-0.03081207,0.26278273,51.554063,48.471663)">
      <g
         id="use1075">
        <path
           fill="#bf7958"
           stroke="none"
           d="m -24.65,-11.25 q -2.35,2.35 -2.35,5.7 0,3.35 2.35,5.7 2.4,2.45 5.65,2.45 3.3,0 5.7,-2.45 2.3,-2.35 2.3,-5.7 0,-3.35 -2.3,-5.7 -2.4,-2.45 -5.7,-2.45 -3.25,0 -5.65,2.45 m 2.3,9.15 q -1.4,-1.4 -1.4,-3.45 0,-1.95 1.4,-3.45 1.4,-1.4 3.35,-1.4 2.05,0 3.45,1.4 1.4,1.5 1.4,3.45 0,2.05 -1.4,3.45 -1.4,1.45 -3.45,1.45 -1.95,0 -3.35,-1.45 m 34.7,-9.15 Q 10,-8.9 10,-5.55 q 0,3.35 2.35,5.7 2.4,2.45 5.65,2.45 3.3,0 5.7,-2.45 2.3,-2.35 2.3,-5.7 0,-3.35 -2.3,-5.7 -2.4,-2.45 -5.7,-2.45 -3.25,0 -5.65,2.45 m 2.3,2.25 q 1.4,-1.4 3.35,-1.4 2,0 3.45,1.4 1.4,1.5 1.4,3.45 0,2.05 -1.4,3.45 Q 20,-0.65 18,-0.65 16.05,-0.65 14.65,-2.1 13.2,-3.5 13.2,-5.55 13.2,-7.5 14.65,-9 Z"
           id="path20" />
        <path
           fill="#a8603f"
           stroke="none"
           d="m -23.75,-5.55 q 0,2.05 1.4,3.45 1.4,1.45 3.35,1.45 2.05,0 3.45,-1.45 1.4,-1.4 1.4,-3.45 0,-1.95 -1.4,-3.45 -1.4,-1.4 -3.45,-1.4 -1.95,0 -3.35,1.4 -1.4,1.5 -1.4,3.45 M 18,-10.4 q -1.95,0 -3.35,1.4 -1.45,1.5 -1.45,3.45 0,2.05 1.45,3.45 1.4,1.45 3.35,1.45 2,0 3.45,-1.45 1.4,-1.4 1.4,-3.45 0,-1.95 -1.4,-3.45 Q 20,-10.4 18,-10.4 Z"
           id="path21" />
      </g>
    </g>
    <g
       id="g1077"
       transform="matrix(0.26278273,0.03081207,-0.03081207,0.26278273,51.554063,48.471663)">
      <g
         id="use1076">
        <path
           fill="#bf7958"
           stroke="none"
           d="m 11.7,8 q 5.4,-0.7 6.1,-5.8 l 2.65,-26 H -21.4 L -18.2,8 Z"
           id="path1" />
      </g>
    </g>
    <g
       id="g1078"
       transform="matrix(0.26278273,0.03081207,-0.03081207,0.26278273,51.554063,48.471663)">
      <g
         id="use1077">
        <path
           fill="#ffffff"
           stroke="none"
           d="m -12.95,-8.15 q 0,1.75 1.1,3 1.2,1.35 3,1.35 1.7,0 2.85,-1.35 1.15,-1.25 1.15,-3 0,-1.75 -1.15,-3 -1.15,-1.3 -2.85,-1.3 -1.8,0 -3,1.3 -1.1,1.25 -1.1,3 m 2.5,0.15 v -0.25 q 0.05,-1.05 0.7,-1.8 0.7,-0.8 1.7,-0.8 1.05,0 1.75,0.8 0.65,0.75 0.7,1.8 V -8 q -0.05,1 -0.7,1.75 -0.7,0.8 -1.75,0.8 -1,0 -1.7,-0.8 Q -10.4,-7 -10.45,-8 M 5.1,-5.15 q 1.25,1.35 3,1.35 1.75,0 2.8,-1.35 1.25,-1.25 1.25,-3 0,-1.75 -1.25,-3 -1.05,-1.3 -2.8,-1.3 -1.75,0 -3,1.3 -1.1,1.25 -1.1,3 0,1.75 1.1,3 m 3.55,-4.9 q 0.7,0.75 0.75,1.8 V -8 Q 9.35,-7 8.65,-6.25 8,-5.45 7,-5.45 6,-5.45 5.2,-6.25 4.6,-7 4.55,-8 v -0.35 q 0.05,-0.95 0.65,-1.7 0.8,-0.8 1.8,-0.8 1,0 1.65,0.8 z"
           id="path9" />
        <path
           fill="#3c3e41"
           stroke="none"
           d="M -10.45,-8.25 V -8 q 0.05,1 0.7,1.75 0.7,0.8 1.7,0.8 1.05,0 1.75,-0.8 Q -5.65,-7 -5.6,-8 v -0.25 q -0.05,-1.05 -0.7,-1.8 -0.7,-0.8 -1.75,-0.8 -1,0 -1.7,0.8 -0.65,0.75 -0.7,1.8 m 19.85,0 Q 9.35,-9.3 8.65,-10.05 8,-10.85 7,-10.85 q -1,0 -1.8,0.8 -0.6,0.75 -0.65,1.7 V -8 q 0.05,1 0.65,1.75 0.8,0.8 1.8,0.8 1,0 1.65,-0.8 Q 9.35,-7 9.4,-8 Z"
           id="path17" />
      </g>
    </g>
    <g
       id="g1079"
       transform="matrix(0.26278273,0.03081207,-0.03081207,0.26278273,51.554063,48.471663)">
      <g
         id="use1078">
        <path
           fill="#3c3e41"
           stroke="none"
           d="m -3.4,-11.3 0.2,-2.85 -10.8,-0.5 -0.15,2.85 10.75,0.5 m 6.3,-2.85 0.2,2.85 10.75,-0.5 -0.15,-2.85 z"
           id="path7" />
      </g>
    </g>
    <g
       id="g1080"
       transform="matrix(0.26278273,0.03081207,-0.03081207,0.26278273,51.554063,48.471663)">
      <g
         id="use1079">
        <path
           fill="#3c3e41"
           stroke="none"
           d="m -0.7,-3.3 q -3.55,0 -6,1.45 -2.3,1.3 -2.6,3.1 -0.1,0.25 0,0.55 0.1,0.25 0.3,0.45 0.2,0.2 0.5,0.25 4.3,0.65 8.1,-1 3.75,1.65 8.1,1 Q 8,2.45 8.2,2.25 8.4,2.05 8.5,1.8 8.6,1.5 8.55,1.25 8.2,-0.55 5.9,-1.85 3.4,-3.3 -0.1,-3.3 q -0.15,0 -0.3,0 -0.15,0 -0.3,0 z"
           id="path18" />
      </g>
    </g>
    <g
       id="g1081"
       transform="matrix(0.26278273,0.03081207,-0.03081207,0.26278273,51.554063,48.471663)">
      <g
         id="use1080">
        <path
           fill="#955435"
           stroke="none"
           d="m 2.1,-3.4 q 1,-0.7 1,-1.65 0,-0.9 -1,-1.65 -1,-0.65 -2.45,-0.65 -1.4,0 -2.4,0.65 -1,0.75 -1,1.65 0,0.95 1,1.65 1,0.75 2.4,0.75 1.45,0 2.45,-0.75 z"
           id="path8" />
      </g>
    </g>
    <g
       id="g1082"
       transform="matrix(0.26278273,0.03081207,-0.03081207,0.26278273,51.554063,48.471663)">
      <g
         id="use1081">
        <path
           fill="#3c3e41"
           stroke="none"
           d="m -20.6,-23.3 h -0.05 q -1,0.15 -1.65,1 -0.65,0.75 -0.5,1.75 l 1.9,16 q 0.1,0.95 0.9,1.65 0.8,0.6 1.8,0.45 h 0.05 q 1,-0.1 1.6,-0.9 0.6,-0.8 0.5,-1.85 l -1.9,-15.9 q -0.15,-1.05 -0.95,-1.65 -0.75,-0.6 -1.7,-0.55 m 38.5,0.55 q -0.75,0.6 -0.9,1.65 l -1.9,15.9 q -0.1,1.05 0.5,1.85 0.6,0.8 1.6,0.9 h 0.05 Q 18.2,-2.3 19,-2.9 q 0.85,-0.7 0.95,-1.65 l 1.9,-16 q 0.15,-1 -0.5,-1.75 -0.65,-0.85 -1.65,-1 h -0.05 q -1,-0.05 -1.75,0.55 z"
           id="path19" />
      </g>
    </g>
    <g
       id="g1083"
       transform="matrix(0.26278273,0.03081207,-0.03081207,0.26278273,51.554063,48.471663)">
      <g
         id="use1082">
        <path
           fill="#3c3e41"
           stroke="none"
           d="m 14.65,-19.9 q 6.4,-2.05 6.4,-4.75 0,-2.65 -6.4,-4.35 -6.3,-1.7 -15.35,-1.45 -8.95,0.3 -15.35,2.35 -6.35,2.1 -6.35,4.75 0,2.7 6.35,4.35 6.4,1.75 15.35,1.45 9.05,-0.25 15.35,-2.35 z"
           id="path4" />
      </g>
    </g>
  </g>
</svg>
